<?xml version="1.0" encoding="utf-8"?>
<!-- Generator: Adobe Illustrator 25.2.3, SVG Export Plug-In . SVG Version: 6.00 Build 0)  -->
<svg version="1.1" id="Capa_1" xmlns="http://www.w3.org/2000/svg" xmlns:xlink="http://www.w3.org/1999/xlink" x="0px" y="0px"
	 viewBox="0 0 80 80" style="enable-background:new 0 0 80 80;" xml:space="preserve">
<style type="text/css">
	.st0{fill:url(#SVGID_1_);}
	.st1{fill:url(#SVGID_2_);}
	.st2{fill:url(#SVGID_3_);}
	.st3{fill:#FFFFFF;}
</style>
<rect x="-2.8" y="-2.8" width="85.6" height="85.6"/>
<g id="Layer_1">
	<circle cx="40" cy="40" r="40"/>
	<g>
		
			<linearGradient id="SVGID_1_" gradientUnits="userSpaceOnUse" x1="38.95" y1="587.4" x2="38.95" y2="530.6" gradientTransform="matrix(1 0 0 1 0 -518)">
			<stop  offset="0" style="stop-color:#FFFFFF"/>
			<stop  offset="0.5" style="stop-color:#FDFDFD"/>
			<stop  offset="0.7" style="stop-color:#F5F4F4"/>
			<stop  offset="0.9" style="stop-color:#E7E6E6"/>
			<stop  offset="1" style="stop-color:#E2E1E1"/>
		</linearGradient>
		<path class="st0" d="M56.8,16.6V49c0,3.2-0.8,6.1-2.4,8.6c-1.6,2.5-3.8,4.5-6.5,5.8c-2.6,1.3-5.7,2-9,2s-1.8,0-2.8-0.2
			c-2.3-0.3-4.4-0.9-6.3-1.8c-1.7-0.9-3.2-2-4.5-3.3c-0.7-0.8-1.4-1.6-2-2.5C21.8,55.1,21,52.2,21,49v-2.7c0-0.2,0-0.4,0-0.6
			c0-0.3,0-0.7,0-1V29.5c0-7.1,5.8-12.9,12.9-12.9H56.8 M60.8,12.6H34c-9.3,0-16.9,7.6-16.9,16.9v15.2c0,0.3,0,0.6,0,1
			c0,0.2,0,0.5,0,0.7v2.7c0,4,1,7.5,2.9,10.7c0.7,1.2,1.5,2.2,2.5,3.2c1.6,1.7,3.5,3.1,5.6,4.1c2.3,1.1,4.8,1.9,7.6,2.2
			c1.1,0.1,2.1,0.2,3.2,0.2c3.9,0,7.5-0.8,10.7-2.4c3.5-1.7,6.2-4.2,8.2-7.3c2-3.2,3-6.8,3-10.7L60.8,12.6
			C60.8,12.6,60.8,12.6,60.8,12.6z"/>
		<g>
			
				<linearGradient id="SVGID_2_" gradientUnits="userSpaceOnUse" x1="52.0843" y1="563.9958" x2="38.1843" y2="566.0959" gradientTransform="matrix(1 0 0 1 0 -518)">
				<stop  offset="0" style="stop-color:#FFFFFF"/>
				<stop  offset="0.3" style="stop-color:#FCFCFC"/>
				<stop  offset="0.6" style="stop-color:#F2F1F1"/>
				<stop  offset="0.8" style="stop-color:#E1E0E0"/>
				<stop  offset="1" style="stop-color:#CBC9C9"/>
			</linearGradient>
			<path class="st1" d="M52.8,33.4c-0.1-0.1-0.3-0.2-0.6-0.2H44c-0.2,0-0.4,0-0.6,0.2c-0.1,0.1-0.2,0.3-0.2,0.6v19.8
				c0,4-2.8,7.2-6.6,7.9c0.8,0,1.5,0.1,2.3,0.1c2.7,0,5.2-0.5,7.3-1.6s3.8-2.5,5-4.4s1.8-4.1,1.8-6.5V33.9
				C53,33.7,53,33.5,52.8,33.4L52.8,33.4z"/>
			
				<linearGradient id="SVGID_3_" gradientUnits="userSpaceOnUse" x1="41.4118" y1="578.4752" x2="32.1118" y2="567.5752" gradientTransform="matrix(1 0 0 1 0 -518)">
				<stop  offset="0" style="stop-color:#FFFFFF"/>
				<stop  offset="1" style="stop-color:#FFFFFF"/>
			</linearGradient>
			<path class="st2" d="M42,52.4c-0.8,0.8-1.8,1.2-3.1,1.2s-2.3-0.4-3-1.2s-1.1-1.8-1.1-3v-2.7c0-0.2,0-0.4-0.2-0.6
				s-0.3-0.2-0.6-0.2h-8.2c-0.2,0-0.4,0-0.6,0.2c-0.1,0.1-0.2,0.3-0.2,0.6v2.8c0,2.5,0.6,4.7,1.7,6.6c0.4,0.7,0.9,1.3,1.5,1.9
				c0.9,1,2.1,1.8,3.4,2.5c1.5,0.7,3.2,1.2,5,1.4c3.8-0.7,6.6-4,6.6-7.9v-4.5C43.2,50.7,42.8,51.8,42,52.4L42,52.4z"/>
		</g>
		<circle class="st3" cx="48.1" cy="25" r="4.9"/>
	</g>
</g>
</svg>
