<?xml version="1.0" encoding="utf-8"?>
<!-- Generator: Adobe Illustrator 25.2.3, SVG Export Plug-In . SVG Version: 6.00 Build 0)  -->
<svg version="1.1" id="Capa_1" xmlns="http://www.w3.org/2000/svg" xmlns:xlink="http://www.w3.org/1999/xlink" x="0px" y="0px"
	 viewBox="0 0 16 16" style="enable-background:new 0 0 16 16;" xml:space="preserve">
<style type="text/css">
	.st0{fill:url(#SVGID_1_);}
	.st1{fill:url(#SVGID_2_);}
	.st2{fill:url(#SVGID_3_);}
	.st3{fill:#FFFFFF;}
	.st4{display:none;}
</style>
<path d="M14,16H2c-1.1,0-2-0.9-2-2V2c0-1.1,0.9-2,2-2h12c1.1,0,2,0.9,2,2v12C16,15.1,15.1,16,14,16z"/>
<g id="Layer_1">
	<g>
		<g>
			
				<linearGradient id="SVGID_1_" gradientUnits="userSpaceOnUse" x1="7.799" y1="4.124" x2="7.799" y2="15.476" gradientTransform="matrix(1 0 0 -1 0 18)">
				<stop  offset="0" style="stop-color:#FFFFFF"/>
				<stop  offset="0.4603" style="stop-color:#FDFDFD"/>
				<stop  offset="0.7255" style="stop-color:#F5F4F4"/>
				<stop  offset="0.9404" style="stop-color:#E7E6E6"/>
				<stop  offset="1" style="stop-color:#E2E1E1"/>
			</linearGradient>
			<path class="st0" d="M11.4,3.3v6.5c0,0.6-0.2,1.2-0.5,1.7c-0.3,0.5-0.8,0.9-1.3,1.2c-0.5,0.3-1.1,0.4-1.8,0.4c-0.2,0-0.4,0-0.5,0
				C6.8,13,6.4,12.9,6,12.7c-0.3-0.2-0.6-0.4-0.9-0.7c-0.1-0.2-0.3-0.3-0.4-0.5C4.4,11,4.2,10.4,4.2,9.8V9.3c0,0,0-0.1,0-0.1
				c0-0.1,0-0.1,0-0.2v-3c0-1.4,1.2-2.6,2.6-2.6L11.4,3.3 M12.2,2.5h-0.8H6.8C5,2.5,3.4,4,3.4,5.9v3c0,0.1,0,0.1,0,0.2
				c0,0,0,0.1,0,0.1v0.5c0,0.8,0.2,1.5,0.6,2.1c0.1,0.2,0.3,0.4,0.5,0.6c0.3,0.3,0.7,0.6,1.1,0.8c0.5,0.2,1,0.4,1.5,0.4
				c0.2,0,0.4,0,0.6,0c0.8,0,1.5-0.2,2.1-0.5c0.7-0.3,1.2-0.8,1.6-1.5c0.4-0.6,0.6-1.4,0.6-2.1V3.3L12.2,2.5L12.2,2.5z"/>
			<g>
				
					<linearGradient id="SVGID_2_" gradientUnits="userSpaceOnUse" x1="10.4137" y1="8.7877" x2="7.6474" y2="8.3667" gradientTransform="matrix(1 0 0 -1 0 18)">
					<stop  offset="0" style="stop-color:#FFFFFF"/>
					<stop  offset="0.3021" style="stop-color:#FCFCFC"/>
					<stop  offset="0.5539" style="stop-color:#F2F1F1"/>
					<stop  offset="0.7867" style="stop-color:#E1E0E0"/>
					<stop  offset="1" style="stop-color:#CBC9C9"/>
				</linearGradient>
				<path class="st1" d="M10.6,6.7c0,0-0.1,0-0.1,0H8.8c0,0-0.1,0-0.1,0c0,0,0,0.1,0,0.1v1.7v1.4v0.9c0,0.8-0.6,1.4-1.3,1.6
					c0.2,0,0.3,0,0.5,0c0.5,0,1-0.1,1.5-0.3s0.8-0.5,1-0.9c0.2-0.4,0.4-0.8,0.4-1.3V6.8C10.6,6.8,10.6,6.7,10.6,6.7z"/>
				
					<linearGradient id="SVGID_3_" gradientUnits="userSpaceOnUse" x1="8.308" y1="5.9157" x2="6.4367" y2="8.106" gradientTransform="matrix(1 0 0 -1 0 18)">
					<stop  offset="0" style="stop-color:#FFFFFF"/>
					<stop  offset="1" style="stop-color:#FFFFFF"/>
				</linearGradient>
				<path class="st2" d="M8.4,10.5c-0.2,0.2-0.4,0.2-0.6,0.2c-0.3,0-0.5-0.1-0.6-0.2C7,10.3,7,10.1,7,9.9V9.3c0,0,0-0.1,0-0.1
					s-0.1,0-0.1,0H6.4H5.2c0,0-0.1,0-0.1,0c0,0,0,0.1,0,0.1v0.6c0,0.5,0.1,0.9,0.3,1.3c0.1,0.1,0.2,0.3,0.3,0.4
					c0.2,0.2,0.4,0.4,0.7,0.5c0.3,0.1,0.6,0.2,1,0.3c0.8-0.1,1.3-0.8,1.3-1.6V9.9C8.6,10.1,8.6,10.3,8.4,10.5z"/>
			</g>
			<circle class="st3" cx="9.6" cy="5" r="1"/>
		</g>
	</g>
</g>
</svg>
