<?xml version="1.0" encoding="UTF-8"?>
<svg id="Capa_1" xmlns="http://www.w3.org/2000/svg" version="1.1" xmlns:xlink="http://www.w3.org/1999/xlink" viewBox="0 0 80 80">
  <!-- Generator: Adobe Illustrator 29.1.0, SVG Export Plug-In . SVG Version: 2.1.0 Build 142)  -->
  <defs>
    <style>
      .st0 {
        fill: #fff;
      }

      .st1 {
        fill: url(#Degradado_sin_nombre_2);
      }

      .st2 {
        fill: #333;
      }

      .st3 {
        fill: url(#Degradado_sin_nombre_3);
      }

      .st4 {
        fill: url(#Degradado_sin_nombre);
      }
    </style>
    <linearGradient id="Degradado_sin_nombre" data-name="Degradado sin nombre" x1="39" y1="12.6" x2="39" y2="69.4" gradientTransform="translate(0 82) scale(1 -1)" gradientUnits="userSpaceOnUse">
      <stop offset="0" stop-color="#fff"/>
      <stop offset=".5" stop-color="#fdfdfd"/>
      <stop offset=".7" stop-color="#f5f4f4"/>
      <stop offset=".9" stop-color="#e7e6e6"/>
      <stop offset="1" stop-color="#e2e1e1"/>
    </linearGradient>
    <linearGradient id="Degradado_sin_nombre_2" data-name="Degradado sin nombre 2" x1="52.1" y1="35.9" x2="38.2" y2="33.8" gradientTransform="translate(0 82) scale(1 -1)" gradientUnits="userSpaceOnUse">
      <stop offset="0" stop-color="#fff"/>
      <stop offset=".3" stop-color="#fcfcfc"/>
      <stop offset=".6" stop-color="#f2f1f1"/>
      <stop offset=".8" stop-color="#e1e0e0"/>
      <stop offset="1" stop-color="#cbc9c9"/>
    </linearGradient>
    <linearGradient id="Degradado_sin_nombre_3" data-name="Degradado sin nombre 3" x1="41.5" y1="21.6" x2="32.2" y2="32.5" gradientTransform="translate(0 82) scale(1 -1)" gradientUnits="userSpaceOnUse">
      <stop offset="0" stop-color="#fff"/>
      <stop offset="1" stop-color="#fff"/>
    </linearGradient>
  </defs>
  <rect class="st2" x="-2.8" y="-2.8" width="85.6" height="85.6"/>
  <g id="Layer_1">
    <circle class="st2" cx="40" cy="40" r="40"/>
    <g>
      <path class="st4" d="M56.8,16.6v32.4c0,3.2-.8,6.1-2.4,8.6-1.6,2.5-3.8,4.5-6.5,5.8-2.6,1.3-5.7,2-9,2s-1.8,0-2.8-.2c-2.3-.3-4.4-.9-6.3-1.8-1.7-.9-3.2-2-4.5-3.3-.7-.8-1.4-1.6-2-2.5-1.5-2.5-2.3-5.4-2.3-8.6v-2.7c0-.2,0-.4,0-.6,0-.3,0-.7,0-1v-15.2c0-7.1,5.8-12.9,12.9-12.9h22.8M60.8,12.6h-26.8c-9.3,0-16.9,7.6-16.9,16.9v15.2c0,.3,0,.6,0,1,0,.2,0,.5,0,.7v2.7c0,4,1,7.5,2.9,10.7.7,1.2,1.5,2.2,2.5,3.2,1.6,1.7,3.5,3.1,5.6,4.1,2.3,1.1,4.8,1.9,7.6,2.2,1.1.1,2.1.2,3.2.2,3.9,0,7.5-.8,10.7-2.4,3.5-1.7,6.2-4.2,8.2-7.3,2-3.2,3-6.8,3-10.7V12.6h0Z"/>
      <g>
        <path class="st1" d="M52.8,33.4c-.1-.1-.3-.2-.6-.2h-8.2c-.2,0-.4,0-.6.2-.1.1-.2.3-.2.6v19.8c0,4-2.8,7.2-6.6,7.9.8,0,1.5.1,2.3.1,2.7,0,5.2-.5,7.3-1.6s3.8-2.5,5-4.4c1.2-1.9,1.8-4.1,1.8-6.5v-15.4c0-.2,0-.4-.2-.6Z"/>
        <path class="st3" d="M42,52.4c-.8.8-1.8,1.2-3.1,1.2s-2.3-.4-3-1.2c-.7-.8-1.1-1.8-1.1-3v-2.7c0-.2,0-.4-.2-.6s-.3-.2-.6-.2h-8.2c-.2,0-.4,0-.6.2-.1.1-.2.3-.2.6v2.8c0,2.5.6,4.7,1.7,6.6.4.7.9,1.3,1.5,1.9.9,1,2.1,1.8,3.4,2.5,1.5.7,3.2,1.2,5,1.4,3.8-.7,6.6-4,6.6-7.9v-4.5c0,1.2-.4,2.3-1.2,3Z"/>
      </g>
      <circle class="st0" cx="48.1" cy="25" r="4.9"/>
    </g>
  </g>
</svg>