<?xml version="1.0" encoding="utf-8"?>
<!-- Generator: Adobe Illustrator 29.1.0, SVG Export Plug-In . SVG Version: 9.03 Build 55587)  -->
<svg version="1.1" id="Capa_1" xmlns="http://www.w3.org/2000/svg" xmlns:xlink="http://www.w3.org/1999/xlink" x="0px" y="0px"
	 viewBox="0 0 80 60" style="enable-background:new 0 0 80 60;" xml:space="preserve">
<style type="text/css">
	.st0{fill:#FFFFFF;}
	.st1{fill:#EF7E81;}
	.st2{fill:#88AFDD;}
	.st3{fill:#FFE783;}
	.st4{fill:#91C360;}
	.st5{fill:#20244D;}
	.st6{fill:#9294C9;}
</style>
<rect x="0" y="0" class="st0" width="80" height="60"/>
<g>
	<path class="st5" d="M20.13,0h39.74c6.03,0,10.9,4.87,10.9,10.9V49.1c0,6.03-4.87,10.9-10.9,10.9H20.13
		c-6.03,0-10.9-4.87-10.9-10.9V10.9C9.23,4.87,14.1,0,20.13,0z"/>
	<g>
		<path class="st6" d="M23.85,42.08V15.69c0-0.18,0.08-0.28,0.26-0.28c0.44,0,0.85,0,1.44-0.03c0.62-0.03,1.26-0.03,1.95-0.05
			s1.44-0.03,2.23-0.05c0.79-0.03,1.56-0.03,2.33-0.03c2.1,0,3.85,0.26,5.28,0.79c1.28,0.44,2.46,1.15,3.44,2.1
			c0.82,0.82,1.46,1.82,1.87,2.92c0.38,1.08,0.59,2.18,0.59,3.33c0,2.21-0.51,4.03-1.54,5.46c-1.03,1.44-2.46,2.51-4.13,3.13
			c-1.74,0.64-3.67,0.87-5.77,0.87c-0.62,0-1.03,0-1.28-0.03c-0.26-0.03-0.62-0.03-1.1-0.03v8.23c0.03,0.18-0.1,0.33-0.28,0.36
			h-4.97C23.95,42.41,23.85,42.31,23.85,42.08L23.85,42.08z M29.44,20.36v8.62c0.36,0.03,0.69,0.05,1,0.05h1.36
			c1,0,2-0.15,2.95-0.46c0.82-0.23,1.54-0.72,2.1-1.36c0.54-0.64,0.79-1.51,0.79-2.64c0.03-0.79-0.18-1.59-0.59-2.28
			c-0.44-0.67-1.05-1.18-1.79-1.46c-0.95-0.38-1.97-0.54-3.03-0.51c-0.67,0-1.26,0-1.74,0.03C29.97,20.31,29.62,20.33,29.44,20.36
			L29.44,20.36z M46.82,21.85h4.49c0.26,0,0.46,0.18,0.54,0.41c0.08,0.21,0.13,0.41,0.15,0.64c0.05,0.26,0.1,0.54,0.13,0.79
			c0.03,0.28,0.05,0.59,0.05,0.92c0.77-0.9,1.69-1.64,2.74-2.21c1.18-0.67,2.54-1,3.9-1c0.18-0.03,0.33,0.1,0.36,0.28v5.1
			c0,0.21-0.13,0.28-0.41,0.28c-0.92-0.03-1.87,0.05-2.77,0.26c-0.74,0.15-1.46,0.38-2.15,0.69c-0.49,0.23-0.95,0.54-1.31,0.95
			v13.08c0,0.26-0.1,0.36-0.33,0.36h-5.05c-0.21,0.03-0.38-0.1-0.41-0.31V27.79c0-0.62,0-1.26-0.03-1.92s-0.03-1.33-0.05-2
			c0-0.59-0.05-1.15-0.1-1.74c-0.03-0.13,0.05-0.26,0.18-0.28C46.74,21.82,46.79,21.82,46.82,21.85L46.82,21.85z"/>
	</g>
</g>
</svg>
