<?xml version="1.0" encoding="UTF-8"?>
<svg id="Capa_1" xmlns="http://www.w3.org/2000/svg" version="1.1" viewBox="0 0 80 60">
  <!-- Generator: Adobe Illustrator 29.1.0, SVG Export Plug-In . SVG Version: 2.1.0 Build 142)  -->
  <defs>
    <style>
      .st0 {
        fill: #ef7e81;
      }

      .st1 {
        fill: #91c360;
      }

      .st2 {
        fill: #88afdd;
      }

      .st3 {
        fill: #ffe783;
      }
    </style>
  </defs>
  <path class="st0" d="M38.22,21.71v5.62l-13.49-13.49,4.48-4.48,6.81,6.81c-.18.49-.28,1.01-.27,1.54,0,1.7.96,3.25,2.48,4ZM42.35,22.52l2.1,2.1-2.1,2.1v-4.2ZM55.18,13.89l-8.1,8.1-2.73-2.72c.25-.67.33-1.39.24-2.09-.28-2.14-2.05-3.78-4.21-3.89-.59-.03-1.19.06-1.74.27l-6.81-6.83,5.77-5.75c1.29-1.29,3.37-1.29,4.66,0,0,0,0,0,0,0l12.91,12.92Z"/>
  <path class="st2" d="M35.54,32.49l-12.26,12.26-12.16-12.05c-1.43-1.49-1.41-3.85.04-5.31l12.54-12.54,11.84,11.88c1.59,1.59,1.59,4.18,0,5.77Z"/>
  <path class="st3" d="M42.37,33.96v5.15c1.53.91,2.33,2.68,2,4.43-.3,1.7-1.62,3.05-3.32,3.37-2.29.5-4.55-.95-5.05-3.24-.41-1.88.5-3.81,2.22-4.69v-5.69c-.02-.25-.24-.43-.49-.4-.09,0-.17.04-.24.1l-12.84,12.84,13.22,13.22c1.28,1.28,3.36,1.28,4.64,0l12.47-12.45-12.59-12.64Z"/>
  <path class="st1" d="M68.6,33.36l-11.89,11.89-12.8-12.8c-1.5-1.5-1.5-3.92,0-5.42l1.47-1.49,3.27,3.26c-.85,2.3.33,4.86,2.63,5.71,2.3.85,4.86-.33,5.71-2.63.85-2.3-.33-4.86-2.63-5.71-.99-.37-2.08-.37-3.07,0l-3.25-3.24,8.31-8.3,12.26,12.27c1.79,1.78,1.8,4.67.02,6.46,0,0-.01.01-.02.02Z"/>
</svg>