<?xml version="1.0" encoding="utf-8"?>
<!-- Generator: Adobe Illustrator 29.1.0, SVG Export Plug-In . SVG Version: 9.03 Build 55587)  -->
<svg version="1.1" id="Capa_1" xmlns="http://www.w3.org/2000/svg" xmlns:xlink="http://www.w3.org/1999/xlink" x="0px" y="0px"
	 viewBox="0 0 80 60" style="enable-background:new 0 0 80 60;" xml:space="preserve">
<style type="text/css">
	.st0{fill:#FFFFFF;}
	.st1{fill:#EF7E81;}
	.st2{fill:#88AFDD;}
	.st3{fill:#FFE783;}
	.st4{fill:#91C360;}
	.st5{fill:#20244D;}
	.st6{fill:#9294C9;}
</style>
<rect x="0" y="0" class="st0" width="80" height="60"/>
<g>
	<path class="st1" d="M38.22,21.71v5.62L24.73,13.84l4.48-4.48l6.81,6.81c-0.18,0.49-0.28,1.01-0.27,1.54
		C35.73,19.41,36.69,20.96,38.22,21.71z M42.35,22.52l2.1,2.1l-2.1,2.1V22.52z M55.18,13.89l-8.1,8.1l-2.73-2.72
		c0.25-0.67,0.33-1.39,0.24-2.09c-0.28-2.14-2.05-3.78-4.21-3.89c-0.59-0.03-1.19,0.06-1.74,0.27l-6.81-6.83l5.77-5.75
		c1.29-1.29,3.37-1.29,4.66-0.01c0,0,0,0,0.01,0.01L55.18,13.89z"/>
	<path class="st2" d="M35.54,32.49L23.28,44.75L11.12,32.71c-1.43-1.49-1.41-3.85,0.04-5.31L23.7,14.85l11.84,11.88
		C37.13,28.32,37.13,30.9,35.54,32.49z"/>
	<path class="st3" d="M42.37,33.96v5.15c1.53,0.91,2.33,2.68,2,4.43c-0.3,1.7-1.62,3.05-3.32,3.37c-2.29,0.5-4.55-0.95-5.05-3.24
		c-0.41-1.88,0.5-3.81,2.22-4.69v-5.69c-0.02-0.25-0.24-0.43-0.49-0.4c-0.09,0.01-0.17,0.04-0.24,0.1L24.64,45.82l13.22,13.22
		c1.28,1.28,3.36,1.28,4.64,0l12.47-12.45L42.37,33.96z"/>
	<path class="st4" d="M68.6,33.36L56.71,45.25l-12.8-12.8c-1.5-1.5-1.5-3.92,0-5.42l1.47-1.49l3.27,3.26
		c-0.85,2.3,0.33,4.86,2.63,5.71c2.3,0.85,4.86-0.33,5.71-2.63s-0.33-4.86-2.63-5.71c-0.99-0.37-2.08-0.37-3.07,0l-3.25-3.24
		l8.31-8.3L68.6,26.88c1.79,1.78,1.8,4.67,0.02,6.46C68.61,33.34,68.61,33.35,68.6,33.36z"/>
</g>
</svg>
