<?xml version="1.0" encoding="UTF-8"?>
<svg id="Capa_1" xmlns="http://www.w3.org/2000/svg" version="1.1" viewBox="0 0 80 60">
  <!-- Generator: Adobe Illustrator 29.1.0, SVG Export Plug-In . SVG Version: 2.1.0 Build 142)  -->
  <defs>
    <style>
      .st0 {
        fill: #9294c9;
      }

      .st1 {
        fill: #20244d;
      }
    </style>
  </defs>
  <path class="st1" d="M20.13,0h39.74c6.03,0,10.9,4.87,10.9,10.9v38.21c0,6.03-4.87,10.9-10.9,10.9H20.13c-6.03,0-10.9-4.87-10.9-10.9V10.9C9.23,4.87,14.1,0,20.13,0Z"/>
  <path class="st0" d="M23.85,42.08V15.69c0-.18.08-.28.26-.28.44,0,.85,0,1.44-.03.62-.03,1.26-.03,1.95-.05s1.44-.03,2.23-.05,1.56-.03,2.33-.03c2.1,0,3.85.26,5.28.79,1.28.44,2.46,1.15,3.44,2.1.82.82,1.46,1.82,1.87,2.92.38,1.08.59,2.18.59,3.33,0,2.21-.51,4.03-1.54,5.46s-2.46,2.51-4.13,3.13c-1.74.64-3.67.87-5.77.87-.62,0-1.03,0-1.28-.03s-.62-.03-1.1-.03v8.23c.03.18-.1.33-.28.36h-4.97c-.21,0-.31-.1-.31-.33h0ZM29.44,20.36v8.62c.36.03.69.05,1,.05h1.36c1,0,2-.15,2.95-.46.82-.23,1.54-.72,2.1-1.36.54-.64.79-1.51.79-2.64.03-.79-.18-1.59-.59-2.28-.44-.67-1.05-1.18-1.79-1.46-.95-.38-1.97-.54-3.03-.51-.67,0-1.26,0-1.74.03-.51-.03-.87,0-1.05.03h0ZM46.82,21.85h4.49c.26,0,.46.18.54.41.08.21.13.41.15.64.05.26.1.54.13.79.03.28.05.59.05.92.77-.9,1.69-1.64,2.74-2.21,1.18-.67,2.54-1,3.9-1,.18-.03.33.1.36.28v5.1c0,.21-.13.28-.41.28-.92-.03-1.87.05-2.77.26-.74.15-1.46.38-2.15.69-.49.23-.95.54-1.31.95v13.08c0,.26-.1.36-.33.36h-5.05c-.21.03-.38-.1-.41-.31v-14.31c0-.62,0-1.26-.03-1.92s-.03-1.33-.05-2c0-.59-.05-1.15-.1-1.74-.03-.13.05-.26.18-.28,0-.03.05-.03.08,0h0Z"/>
</svg>